<?xml version="1.0" encoding="utf-8"?>
<!-- Generator: Adobe Illustrator 23.0.3, SVG Export Plug-In . SVG Version: 6.00 Build 0)  -->
<svg version="1.1" id="Layer_1" xmlns="http://www.w3.org/2000/svg" xmlns:xlink="http://www.w3.org/1999/xlink" x="0px" y="0px"
	 viewBox="0 0 200 200" style="enable-background:new 0 0 200 200;" xml:space="preserve">
<style type="text/css">
	.st0{fill:#FFFFFF;}
</style>
<title>academy_icon</title>
<g>
	<path class="st0" d="M85.3,133.8H55.6c-1.6,0-2.9,1.3-2.9,2.9c0,1.6,1.3,2.9,2.9,2.9h29.7c1.6,0,2.9-1.3,2.9-2.9
		C88.2,135.1,86.9,133.8,85.3,133.8z"/>
	<path class="st0" d="M129.7,133.8H100c-1.6,0-2.9,1.3-2.9,2.9c0,1.6,1.3,2.9,2.9,2.9h29.7c1.6,0,2.9-1.3,2.9-2.9
		C132.6,135.1,131.3,133.8,129.7,133.8z"/>
	<path class="st0" d="M129.7,60.3H55.6c-1.6,0-2.9,1.3-2.9,2.9s1.3,2.9,2.9,2.9h74.1c1.6,0,2.9-1.3,2.9-2.9
		C132.6,61.6,131.3,60.3,129.7,60.3z"/>
	<path class="st0" d="M129.7,75H100c-1.6,0-2.9,1.3-2.9,2.9s1.3,2.9,2.9,2.9h29.7c1.6,0,2.9-1.3,2.9-2.9S131.3,75,129.7,75z"/>
	<path class="st0" d="M129.7,89.7H100c-1.6,0-2.9,1.3-2.9,2.9s1.3,2.9,2.9,2.9h29.7c1.6,0,2.9-1.3,2.9-2.9
		C132.6,91,131.3,89.7,129.7,89.7z"/>
	<path class="st0" d="M129.7,104.4H100c-1.6,0-2.9,1.3-2.9,2.9s1.3,2.9,2.9,2.9h29.7c1.6,0,2.9-1.3,2.9-2.9
		C132.6,105.7,131.3,104.4,129.7,104.4z"/>
	<path class="st0" d="M129.7,119.1H100c-1.6,0-2.9,1.3-2.9,2.9s1.3,2.9,2.9,2.9h29.7c1.6,0,2.9-1.3,2.9-2.9S131.3,119.1,129.7,119.1
		z"/>
	<path class="st0" d="M85.3,119.1H55.6c-1.6,0-2.9,1.3-2.9,2.9s1.3,2.9,2.9,2.9h29.7c1.6,0,2.9-1.3,2.9-2.9S86.9,119.1,85.3,119.1z"
		/>
	<path class="st0" d="M85.3,75H55.6c-1.6,0-2.9,1.3-2.9,2.9v29.7c0,1.6,1.3,2.9,2.9,2.9h29.7c1.6,0,2.9-1.3,2.9-2.9V77.9
		C88.2,76.3,86.9,75,85.3,75z M82.4,104.7H58.5V80.9h23.8L82.4,104.7L82.4,104.7z"/>
	<path class="st0" d="M159.1,57.4h-8.8v-8.8c0-3.2-2.6-5.9-5.9-5.9H40.9c-3.2,0-5.9,2.6-5.9,5.9v94.1c0,8.1,6.6,14.7,14.7,14.7
		h100.6c8.1,0,14.7-6.6,14.7-14.7V63.2C165,60,162.4,57.4,159.1,57.4z M159.1,142.6c0,4.9-4,8.8-8.8,8.8H49.7c-4.9,0-8.8-4-8.8-8.8
		V48.5h103.5v89.7c0,4.1,3.3,7.4,7.4,7.4c1.6,0,2.9-1.3,2.9-2.9c0-1.6-1.3-2.9-2.9-2.9c-0.8,0-1.5-0.7-1.5-1.5v-75h8.8L159.1,142.6
		L159.1,142.6z"/>
</g>
</svg>
