<?xml version="1.0" encoding="utf-8"?>
<!-- Generator: Adobe Illustrator 23.0.3, SVG Export Plug-In . SVG Version: 6.00 Build 0)  -->
<svg version="1.1" id="Layer_1" xmlns="http://www.w3.org/2000/svg" xmlns:xlink="http://www.w3.org/1999/xlink" x="0px" y="0px"
	 viewBox="0 0 200 200" style="enable-background:new 0 0 200 200;" xml:space="preserve">
<style type="text/css">
	.st0{fill:#002950;}
</style>
<title>academy_icon</title>
<g>
	<g>
		<g>
			<path class="st0" d="M153.6,40.9H147V30h-10.9v10.9H63.9V30H53v10.9h-6.6c-9,0-16.4,7.4-16.4,16.4v96.3c0,9,7.4,16.4,16.4,16.4
				h107.2c9,0,16.4-7.4,16.4-16.4V57.3C170,48.3,162.6,40.9,153.6,40.9z M159.1,153.6c0,3-2.5,5.5-5.5,5.5H46.4
				c-3,0-5.5-2.5-5.5-5.5V81.4h118.1V153.6z M159.1,70.5H40.9V57.3c0-3,2.5-5.5,5.5-5.5H53v10.9h10.9V51.9h72.2v10.9H147V51.9h6.6
				c3,0,5.5,2.5,5.5,5.5V70.5z"/>
		</g>
	</g>
	<g>
		<g>
			<rect x="50.8" y="92.9" class="st0" width="10.9" height="10.9"/>
		</g>
	</g>
	<g>
		<g>
			<rect x="72.7" y="92.9" class="st0" width="10.9" height="10.9"/>
		</g>
	</g>
	<g>
		<g>
			<rect x="94.5" y="92.9" class="st0" width="10.9" height="10.9"/>
		</g>
	</g>
	<g>
		<g>
			<rect x="116.4" y="92.9" class="st0" width="10.9" height="10.9"/>
		</g>
	</g>
	<g>
		<g>
			<rect x="138.3" y="92.9" class="st0" width="10.9" height="10.9"/>
		</g>
	</g>
	<g>
		<g>
			<rect x="50.8" y="114.8" class="st0" width="10.9" height="10.9"/>
		</g>
	</g>
	<g>
		<g>
			<rect x="72.7" y="114.8" class="st0" width="10.9" height="10.9"/>
		</g>
	</g>
	<g>
		<g>
			<rect x="94.5" y="114.8" class="st0" width="10.9" height="10.9"/>
		</g>
	</g>
	<g>
		<g>
			<rect x="116.4" y="114.8" class="st0" width="10.9" height="10.9"/>
		</g>
	</g>
	<g>
		<g>
			<rect x="50.8" y="136.6" class="st0" width="10.9" height="10.9"/>
		</g>
	</g>
	<g>
		<g>
			<rect x="72.7" y="136.6" class="st0" width="10.9" height="10.9"/>
		</g>
	</g>
	<g>
		<g>
			<rect x="94.5" y="136.6" class="st0" width="10.9" height="10.9"/>
		</g>
	</g>
	<g>
		<g>
			<rect x="116.4" y="136.6" class="st0" width="10.9" height="10.9"/>
		</g>
	</g>
	<g>
		<g>
			<rect x="138.3" y="114.8" class="st0" width="10.9" height="10.9"/>
		</g>
	</g>
</g>
</svg>
